<svg width="18" height="18" viewBox="0 0 18 18" fill="none" xmlns="http://www.w3.org/2000/svg">
<path fill-rule="evenodd" clip-rule="evenodd" d="M9 13.5C11.4853 13.5 13.5 11.4853 13.5 9C13.5 6.51472 11.4853 4.5 9 4.5C6.51472 4.5 4.5 6.51472 4.5 9C4.5 11.4853 6.51472 13.5 9 13.5Z" fill="#1E1D1D"/>
<path fill-rule="evenodd" clip-rule="evenodd" d="M8.99635 1.125C9.41056 1.125 9.74635 1.46079 9.74635 1.875V2.625C9.74635 3.03921 9.41056 3.375 8.99635 3.375C8.58214 3.375 8.24635 3.03921 8.24635 2.625V1.875C8.24635 1.46079 8.58214 1.125 8.99635 1.125Z" fill="#1E1D1D"/>
<path fill-rule="evenodd" clip-rule="evenodd" d="M8.99635 14.625C9.41056 14.625 9.74635 14.9608 9.74635 15.375V16.1226C9.74635 16.5368 9.41056 16.8726 8.99635 16.8726C8.58214 16.8726 8.24635 16.5368 8.24635 16.1226V15.375C8.24635 14.9608 8.58214 14.625 8.99635 14.625Z" fill="#1E1D1D"/>
<path fill-rule="evenodd" clip-rule="evenodd" d="M1.12256 8.99879C1.12256 8.58458 1.45834 8.24879 1.87256 8.24879H2.62256C3.03677 8.24879 3.37256 8.58458 3.37256 8.99879C3.37256 9.413 3.03677 9.74879 2.62256 9.74879H1.87256C1.45834 9.74879 1.12256 9.413 1.12256 8.99879Z" fill="#1E1D1D"/>
<path fill-rule="evenodd" clip-rule="evenodd" d="M14.6226 8.99879C14.6226 8.58458 14.9583 8.24879 15.3726 8.24879H16.1201C16.5344 8.24879 16.8701 8.58458 16.8701 8.99879C16.8701 9.413 16.5344 9.74879 16.1201 9.74879H15.3726C14.9583 9.74879 14.6226 9.413 14.6226 8.99879Z" fill="#1E1D1D"/>
<path fill-rule="evenodd" clip-rule="evenodd" d="M3.42881 14.5664C3.13592 14.2735 3.13592 13.7986 3.42881 13.5057L3.95914 12.9754C4.25203 12.6825 4.72691 12.6825 5.0198 12.9754C5.3127 13.2683 5.3127 13.7432 5.0198 14.0361L4.48947 14.5664C4.19658 14.8593 3.7217 14.8593 3.42881 14.5664Z" fill="#1E1D1D"/>
<path fill-rule="evenodd" clip-rule="evenodd" d="M12.9748 5.02046C12.6819 4.72756 12.6819 4.25269 12.9748 3.9598L13.5034 3.43118C13.7963 3.13828 14.2711 3.13828 14.564 3.43118C14.8569 3.72407 14.8569 4.19894 14.564 4.49184L14.0354 5.02046C13.7425 5.31335 13.2676 5.31335 12.9748 5.02046Z" fill="#1E1D1D"/>
<path fill-rule="evenodd" clip-rule="evenodd" d="M3.42881 3.43118C3.7217 3.13828 4.19658 3.13828 4.48947 3.43118L5.0198 3.96151C5.31269 4.2544 5.31269 4.72927 5.0198 5.02217C4.72691 5.31506 4.25203 5.31506 3.95914 5.02217L3.42881 4.49184C3.13592 4.19894 3.13592 3.72407 3.42881 3.43118Z" fill="#1E1D1D"/>
<path fill-rule="evenodd" clip-rule="evenodd" d="M12.9748 12.9771C13.2676 12.6842 13.7425 12.6842 14.0354 12.9771L14.564 13.5057C14.8569 13.7986 14.8569 14.2735 14.564 14.5664C14.2711 14.8593 13.7963 14.8593 13.5034 14.5664L12.9748 14.0378C12.6819 13.7449 12.6819 13.27 12.9748 12.9771Z" fill="#1E1D1D"/>
</svg>
