<svg width="111" height="27" viewBox="0 0 111 27" fill="none" xmlns="http://www.w3.org/2000/svg">
<path d="M33.3018 18.8125V7.48964H37.769C38.6278 7.48964 39.3594 7.65366 39.9639 7.9817C40.5684 8.30605 41.0291 8.75757 41.3461 9.33624C41.6668 9.91124 41.8271 10.5747 41.8271 11.3266C41.8271 12.0785 41.6649 12.742 41.3406 13.317C41.0162 13.8919 40.5463 14.3398 39.9307 14.6604C39.3189 14.9811 38.578 15.1414 37.7082 15.1414H34.8609V13.223H37.3212C37.7819 13.223 38.1615 13.1437 38.4601 12.9852C38.7623 12.823 38.9872 12.6001 39.1346 12.3162C39.2857 12.0287 39.3613 11.6989 39.3613 11.3266C39.3613 10.9506 39.2857 10.6226 39.1346 10.3425C38.9872 10.0587 38.7623 9.83936 38.4601 9.68456C38.1579 9.52607 37.7745 9.44682 37.3101 9.44682H35.6957V18.8125H33.3018Z" fill="#6C7597"/>
<path d="M43.3378 18.8125V10.3204H45.6212V11.8021H45.7097C45.8645 11.275 46.1243 10.8769 46.4892 10.6079C46.8541 10.3351 47.2743 10.1987 47.7498 10.1987C47.8677 10.1987 47.9949 10.2061 48.1313 10.2208C48.2676 10.2356 48.3874 10.2559 48.4906 10.2817V12.3715C48.3801 12.3384 48.2271 12.3089 48.0318 12.2831C47.8364 12.2573 47.6576 12.2444 47.4955 12.2444C47.149 12.2444 46.8394 12.3199 46.5666 12.4711C46.2976 12.6185 46.0838 12.8249 45.9253 13.0903C45.7705 13.3557 45.6931 13.6616 45.6931 14.008V18.8125H43.3378Z" fill="#6C7597"/>
<path d="M53.15 18.9784C52.2912 18.9784 51.5485 18.796 50.9219 18.4311C50.299 18.0625 49.818 17.5501 49.4789 16.8941C49.1398 16.2343 48.9703 15.4695 48.9703 14.5996C48.9703 13.7224 49.1398 12.9557 49.4789 12.2997C49.818 11.6399 50.299 11.1276 50.9219 10.7627C51.5485 10.3941 52.2912 10.2098 53.15 10.2098C54.0088 10.2098 54.7497 10.3941 55.3726 10.7627C55.9992 11.1276 56.482 11.6399 56.8211 12.2997C57.1602 12.9557 57.3297 13.7224 57.3297 14.5996C57.3297 15.4695 57.1602 16.2343 56.8211 16.8941C56.482 17.5501 55.9992 18.0625 55.3726 18.4311C54.7497 18.796 54.0088 18.9784 53.15 18.9784ZM53.1611 17.1539C53.5518 17.1539 53.878 17.0433 54.1397 16.8222C54.4013 16.5973 54.5985 16.2914 54.7312 15.9044C54.8676 15.5174 54.9358 15.0769 54.9358 14.583C54.9358 14.0891 54.8676 13.6487 54.7312 13.2617C54.5985 12.8747 54.4013 12.5687 54.1397 12.3439C53.878 12.1191 53.5518 12.0066 53.1611 12.0066C52.7667 12.0066 52.4349 12.1191 52.1659 12.3439C51.9005 12.5687 51.6996 12.8747 51.5632 13.2617C51.4306 13.6487 51.3642 14.0891 51.3642 14.583C51.3642 15.0769 51.4306 15.5174 51.5632 15.9044C51.6996 16.2914 51.9005 16.5973 52.1659 16.8222C52.4349 17.0433 52.7667 17.1539 53.1611 17.1539Z" fill="#6C7597"/>
<path d="M63.428 10.3204V12.0896H58.1867V10.3204H63.428ZM59.3864 18.8125V9.70667C59.3864 9.09114 59.5062 8.58065 59.7458 8.1752C59.9891 7.76976 60.3208 7.46568 60.741 7.26296C61.1612 7.06024 61.6385 6.95888 62.1729 6.95888C62.5342 6.95888 62.864 6.98652 63.1626 7.04181C63.4648 7.0971 63.6897 7.14686 63.8371 7.19109L63.4169 8.96029C63.3248 8.9308 63.2105 8.90316 63.0741 8.87736C62.9414 8.85156 62.8051 8.83866 62.665 8.83866C62.3185 8.83866 62.0771 8.91974 61.9407 9.08192C61.8044 9.24041 61.7362 9.46341 61.7362 9.7509V18.8125H59.3864Z" fill="#6C7597"/>
<path d="M64.8668 18.8125V10.3204H67.2221V18.8125H64.8668ZM66.05 9.22567C65.6998 9.22567 65.3994 9.10957 65.1488 8.87736C64.9018 8.64146 64.7784 8.3595 64.7784 8.03146C64.7784 7.7071 64.9018 7.42882 65.1488 7.19661C65.3994 6.96072 65.6998 6.84277 66.05 6.84277C66.4001 6.84277 66.6987 6.96072 66.9456 7.19661C67.1963 7.42882 67.3216 7.7071 67.3216 8.03146C67.3216 8.3595 67.1963 8.64146 66.9456 8.87736C66.6987 9.10957 66.4001 9.22567 66.05 9.22567Z" fill="#6C7597"/>
<path d="M73.6258 10.3204V12.0896H68.5117V10.3204H73.6258ZM69.6727 8.28578H72.028V16.203C72.028 16.4204 72.0611 16.59 72.1275 16.7116C72.1938 16.8296 72.286 16.9125 72.4039 16.9604C72.5255 17.0083 72.6656 17.0323 72.8241 17.0323C72.9347 17.0323 73.0452 17.0231 73.1558 17.0046C73.2664 16.9825 73.3512 16.9659 73.4101 16.9549L73.7806 18.7075C73.6626 18.7443 73.4968 18.7867 73.283 18.8347C73.0692 18.8863 72.8093 18.9176 72.5034 18.9286C71.9358 18.9508 71.4382 18.8752 71.0107 18.702C70.5868 18.5287 70.2569 18.2597 70.021 17.8948C69.7851 17.5299 69.669 17.0691 69.6727 16.5126V8.28578Z" fill="#6C7597"/>
<path d="M75.3867 18.8125V7.48964H77.7806V12.1614H82.6404V7.48964H85.0288V18.8125H82.6404V14.1352H77.7806V18.8125H75.3867Z" fill="#6C7597"/>
<path d="M92.4042 15.1967V10.3204H94.7594V18.8125H92.4982V17.27H92.4097C92.2181 17.7676 91.8992 18.1675 91.4532 18.4698C91.0109 18.772 90.471 18.9231 89.8333 18.9231C89.2657 18.9231 88.7663 18.7941 88.335 18.5361C87.9038 18.2781 87.5665 17.9113 87.3233 17.4359C87.0837 16.9604 86.9621 16.3909 86.9584 15.7275V10.3204H89.3136V15.3073C89.3173 15.8086 89.4518 16.2048 89.7172 16.496C89.9826 16.7872 90.3383 16.9328 90.7843 16.9328C91.0681 16.9328 91.3335 16.8683 91.5804 16.7393C91.8274 16.6066 92.0264 16.4112 92.1775 16.1532C92.3323 15.8952 92.4079 15.5764 92.4042 15.1967Z" fill="#6C7597"/>
<path d="M98.9986 13.903V18.8125H96.6434V10.3204H98.888V11.8187H98.9876C99.1755 11.3248 99.4907 10.9341 99.933 10.6466C100.375 10.3554 100.912 10.2098 101.542 10.2098C102.132 10.2098 102.646 10.3388 103.084 10.5968C103.523 10.8548 103.864 11.2234 104.107 11.7026C104.35 12.178 104.472 12.7456 104.472 13.4054V18.8125H102.117V13.8256C102.121 13.3059 101.988 12.9005 101.719 12.6093C101.45 12.3144 101.079 12.167 100.607 12.167C100.291 12.167 100.01 12.2352 99.7671 12.3715C99.5275 12.5079 99.3396 12.7069 99.2032 12.9686C99.0705 13.2266 99.0023 13.5381 98.9986 13.903Z" fill="#6C7597"/>
<path d="M110.845 10.3204V12.0896H105.731V10.3204H110.845ZM106.892 8.28578H109.248V16.203C109.248 16.4204 109.281 16.59 109.347 16.7116C109.413 16.8296 109.506 16.9125 109.624 16.9604C109.745 17.0083 109.885 17.0323 110.044 17.0323C110.154 17.0323 110.265 17.0231 110.375 17.0046C110.486 16.9825 110.571 16.9659 110.63 16.9549L111 18.7075C110.882 18.7443 110.716 18.7867 110.503 18.8347C110.289 18.8863 110.029 18.9176 109.723 18.9286C109.155 18.9508 108.658 18.8752 108.23 18.702C107.806 18.5287 107.477 18.2597 107.241 17.8948C107.005 17.5299 106.889 17.0691 106.892 16.5126V8.28578Z" fill="#6C7597"/>
<path d="M0 20.8768L1.9333e-06 8.68896L6.09391 12.0745V17.5251L10.9691 20.2674L15.8442 17.5251V12.0745L21.9381 8.68896V20.8768L10.9691 26.9707L0 20.8768Z" fill="url(#paint0_linear_150_2893)"/>
<path fill-rule="evenodd" clip-rule="evenodd" d="M3.04696 7.7867L0 6.09392L10.9691 0L21.9381 6.09392L18.8912 7.7867V16.7583L10.9691 21.3287L3.04696 16.7583L3.04696 7.7867ZM18.5611 7.97009L15.8442 9.47944V9.44557L10.9691 6.70329L6.09391 9.44557V9.47944L3.37705 7.97009V16.5708L10.9691 20.9508L18.5611 16.5708V7.97009Z" fill="url(#paint1_linear_150_2893)"/>
<path fill-rule="evenodd" clip-rule="evenodd" d="M3.04696 7.7867L0 6.09392L10.9691 0L21.9381 6.09392L18.8912 7.7867V16.7583L10.9691 21.3287L3.04696 16.7583L3.04696 7.7867ZM18.5611 7.97009L15.8442 9.47944V9.44557L10.9691 6.70329L6.09391 9.44557V9.47944L3.37705 7.97009V16.5708L10.9691 20.9508L18.5611 16.5708V7.97009Z" fill="url(#paint2_linear_150_2893)"/>
<defs>
<linearGradient id="paint0_linear_150_2893" x1="0" y1="26.9707" x2="22.1666" y2="26.9152" gradientUnits="userSpaceOnUse">
<stop stop-color="#0086FF"/>
<stop offset="1" stop-color="#2E9CFF"/>
</linearGradient>
<linearGradient id="paint1_linear_150_2893" x1="3.04696" y1="4.73971" x2="19.5006" y2="4.73971" gradientUnits="userSpaceOnUse">
<stop stop-color="#64C2DB"/>
<stop offset="0.307292" stop-color="#7476ED"/>
<stop offset="0.604167" stop-color="#C994DF"/>
<stop offset="1" stop-color="#E56F8C"/>
</linearGradient>
<linearGradient id="paint2_linear_150_2893" x1="0" y1="21.3287" x2="22.1666" y2="21.2812" gradientUnits="userSpaceOnUse">
<stop stop-color="#0086FF"/>
<stop offset="1" stop-color="#2E9CFF"/>
</linearGradient>
</defs>
</svg>
