<svg width="44" height="31" viewBox="0 0 44 31" fill="none" xmlns="http://www.w3.org/2000/svg">
<path fill-rule="evenodd" clip-rule="evenodd" d="M43.8309 0L32.4943 11.3366C29.2705 14.5603 24.0481 14.5603 20.8243 11.3366L12.3347 2.84693L2.82308 2.83137V28.1686L12.3441 28.1531L20.8337 19.6634C24.0575 16.4397 29.28 16.4397 32.5037 19.6634L43.8403 31L29.0957 30.9742L21.2924 23.1972L13.5154 30.9742L0 30.9963V0.0036705L13.5059 0.0257571L21.283 7.80284L29.0863 0.0258224L43.8309 0ZM23.3064 9.77203C25.4376 11.4503 28.5321 11.3064 30.4981 9.34035L37.0034 2.83504L30.2549 2.84686L23.3064 9.77203ZM23.3158 21.228L30.2643 28.1531L37.0128 28.165L30.5075 21.6596C28.5415 19.6936 25.447 19.5497 23.3158 21.228Z" fill="url(#paint0_linear_103_9470)"/>
<defs>
<linearGradient id="paint0_linear_103_9470" x1="0" y1="31" x2="44.2967" y2="30.8693" gradientUnits="userSpaceOnUse">
<stop stop-color="#0086FF"/>
<stop offset="1" stop-color="#2E9CFF"/>
</linearGradient>
</defs>
</svg>
