<svg width="36" height="36" viewBox="0 0 36 36" fill="none" xmlns="http://www.w3.org/2000/svg">
<path fill-rule="evenodd" clip-rule="evenodd" d="M8 22.5959C8 22.2151 8.15471 21.8506 8.42864 21.586L9.45759 20.5922C9.84928 20.2139 10.0698 19.6922 10.0681 19.1476L10.0587 15.9946C10.0454 11.5832 13.6179 8 18.0293 8C22.4314 8 26 11.5686 26 15.9707L26 19.1716C26 19.702 26.2107 20.2107 26.5858 20.5858L27.5858 21.5858C27.851 21.851 28 22.2107 28 22.5858C28 23.3668 27.3668 24 26.5858 24H22C22 26.2091 20.2091 28 18 28C15.7909 28 14 26.2091 14 24H9.40408C8.62863 24 8 23.3714 8 22.5959ZM16 24C16 25.1046 16.8954 26 18 26C19.1046 26 20 25.1046 20 24H16ZM24 19.1716C24 20.2324 24.4214 21.2499 25.1716 22L10.8785 22C11.6422 21.246 12.0714 20.2161 12.0681 19.1416L12.0587 15.9886C12.0487 12.6841 14.7248 10 18.0293 10C21.3268 10 24 12.6732 24 15.9707L24 19.1716Z" fill="#B3B9CE"/>
<rect x="20" y="6" width="10" height="10" rx="5" fill="url(#paint0_linear_103_9471)"/>
<defs>
<linearGradient id="paint0_linear_103_9471" x1="20" y1="16" x2="30.1042" y2="15.9789" gradientUnits="userSpaceOnUse">
<stop stop-color="#0086FF"/>
<stop offset="1" stop-color="#2E9CFF"/>
</linearGradient>
</defs>
</svg>
