<svg width="36" height="36" viewBox="0 0 36 36" fill="none" xmlns="http://www.w3.org/2000/svg">
<rect x="0.5" y="0.5" width="35" height="35" rx="7.5" stroke="url(#paint0_linear_146_13125)"/>
<path fill-rule="evenodd" clip-rule="evenodd" d="M24 15V27H12V15C12 13.9 12.9 13 14 13H22C23.1 13 24 13.9 24 15ZM17.2 21.6L16.5 20.9C16.2 20.6 15.7 20.6 15.4 20.9C15.1 21.2 15.1 21.7 15.4 22L16.7 23.3C17.4 24 18.5 24 19.2 23.3L20.5 22C20.8 21.7 20.8 21.2 20.5 20.9C20.2 20.6 19.7 20.6 19.4 20.9L18.7 21.6C18.7 21.6 18.7 20.3201 18.7 19.5C18.7 18.6799 18.7 17.4 18.7 17.4C18.7 17 18.4 16.6 17.9 16.6C17.4 16.6 17.1 16.9 17.1 17.4V21.6H17.2Z" fill="url(#paint1_linear_146_13125)"/>
<path fill-rule="evenodd" clip-rule="evenodd" d="M24 9H12C9.8 9 8 10.8 8 13C8 14.7 9 16.1 10.5 16.7V13C10.5 12.6 10.7 12.2 10.9 11.9C11.1 11.6 11.6 11.5 12 11.5H24C24.4 11.5 24.8 11.7 25.1 11.9C25.4 12.1 25.5 12.6 25.5 13V16.7C27 16.1 28 14.7 28 13C28 10.8 26.2 9 24 9Z" fill="url(#paint2_linear_146_13125)"/>
<defs>
<linearGradient id="paint0_linear_146_13125" x1="0" y1="36" x2="36.375" y2="35.9241" gradientUnits="userSpaceOnUse">
<stop stop-color="#0086FF"/>
<stop offset="1" stop-color="#2E9CFF"/>
</linearGradient>
<linearGradient id="paint1_linear_146_13125" x1="8" y1="13" x2="28.2083" y2="13.0468" gradientUnits="userSpaceOnUse">
<stop stop-color="#0086FF"/>
<stop offset="1" stop-color="#2E9CFF"/>
</linearGradient>
<linearGradient id="paint2_linear_146_13125" x1="8" y1="27" x2="28.2083" y2="26.9531" gradientUnits="userSpaceOnUse">
<stop stop-color="#0086FF"/>
<stop offset="1" stop-color="#2E9CFF"/>
</linearGradient>
</defs>
</svg>
