<svg width="36" height="36" viewBox="0 0 36 36" fill="none" xmlns="http://www.w3.org/2000/svg">
<rect width="36" height="36" rx="8" fill="url(#paint0_linear_103_10495)"/>
<path d="M14 10C13.45 10 13 10.45 13 11V12H12C11.45 12 11 12.45 11 13V23C11 23.55 11.45 24 12 24H13V25C13 25.55 13.45 26 14 26C14.55 26 15 25.55 15 25V24H16C16.55 24 17 23.55 17 23V13C17 12.45 16.55 12 16 12H15V11C15 10.45 14.55 10 14 10ZM24 14H23V11C23 10.45 22.55 10 22 10C21.45 10 21 10.45 21 11V14H20C19.45 14 19 14.45 19 15V20C19 20.55 19.45 21 20 21H21V25C21 25.55 21.45 26 22 26C22.55 26 23 25.55 23 25V21H24C24.55 21 25 20.55 25 20V15C25 14.45 24.55 14 24 14Z" fill="white"/>
<defs>
<linearGradient id="paint0_linear_103_10495" x1="0" y1="36" x2="36.375" y2="35.9241" gradientUnits="userSpaceOnUse">
<stop stop-color="#0086FF"/>
<stop offset="1" stop-color="#2E9CFF"/>
</linearGradient>
</defs>
</svg>
