<svg width="36" height="39" viewBox="0 0 36 39" fill="none" xmlns="http://www.w3.org/2000/svg">
<rect width="36" height="36" rx="18" fill="#EBF2F7"/>
<g filter="url(#filter0_dii_103_9482)">
<rect x="3" y="3" width="30" height="30" rx="15" fill="white"/>
<path fill-rule="evenodd" clip-rule="evenodd" d="M18 22.5C20.4853 22.5 22.5 20.4853 22.5 18C22.5 15.5147 20.4853 13.5 18 13.5C15.5147 13.5 13.5 15.5147 13.5 18C13.5 20.4853 15.5147 22.5 18 22.5Z" fill="#1E1D1D"/>
<path fill-rule="evenodd" clip-rule="evenodd" d="M17.9963 10.125C18.4106 10.125 18.7463 10.4608 18.7463 10.875V11.625C18.7463 12.0392 18.4106 12.375 17.9963 12.375C17.5821 12.375 17.2463 12.0392 17.2463 11.625V10.875C17.2463 10.4608 17.5821 10.125 17.9963 10.125Z" fill="#1E1D1D"/>
<path fill-rule="evenodd" clip-rule="evenodd" d="M17.9963 23.625C18.4106 23.625 18.7463 23.9608 18.7463 24.375V25.1226C18.7463 25.5368 18.4106 25.8726 17.9963 25.8726C17.5821 25.8726 17.2463 25.5368 17.2463 25.1226V24.375C17.2463 23.9608 17.5821 23.625 17.9963 23.625Z" fill="#1E1D1D"/>
<path fill-rule="evenodd" clip-rule="evenodd" d="M10.1226 17.9988C10.1226 17.5846 10.4583 17.2488 10.8726 17.2488H11.6226C12.0368 17.2488 12.3726 17.5846 12.3726 17.9988C12.3726 18.413 12.0368 18.7488 11.6226 18.7488H10.8726C10.4583 18.7488 10.1226 18.413 10.1226 17.9988Z" fill="#1E1D1D"/>
<path fill-rule="evenodd" clip-rule="evenodd" d="M23.6226 17.9988C23.6226 17.5846 23.9583 17.2488 24.3726 17.2488H25.1201C25.5344 17.2488 25.8701 17.5846 25.8701 17.9988C25.8701 18.413 25.5344 18.7488 25.1201 18.7488H24.3726C23.9583 18.7488 23.6226 18.413 23.6226 17.9988Z" fill="#1E1D1D"/>
<path fill-rule="evenodd" clip-rule="evenodd" d="M12.4288 23.5664C12.1359 23.2735 12.1359 22.7986 12.4288 22.5057L12.9591 21.9754C13.252 21.6825 13.7269 21.6825 14.0198 21.9754C14.3127 22.2683 14.3127 22.7432 14.0198 23.0361L13.4895 23.5664C13.1966 23.8593 12.7217 23.8593 12.4288 23.5664Z" fill="#1E1D1D"/>
<path fill-rule="evenodd" clip-rule="evenodd" d="M21.9748 14.0205C21.6819 13.7276 21.6819 13.2527 21.9748 12.9598L22.5034 12.4312C22.7963 12.1383 23.2711 12.1383 23.564 12.4312C23.8569 12.7241 23.8569 13.1989 23.564 13.4918L23.0354 14.0205C22.7425 14.3134 22.2676 14.3134 21.9748 14.0205Z" fill="#1E1D1D"/>
<path fill-rule="evenodd" clip-rule="evenodd" d="M12.4288 12.4312C12.7217 12.1383 13.1966 12.1383 13.4895 12.4312L14.0198 12.9615C14.3127 13.2544 14.3127 13.7293 14.0198 14.0222C13.7269 14.3151 13.252 14.3151 12.9591 14.0222L12.4288 13.4918C12.1359 13.1989 12.1359 12.7241 12.4288 12.4312Z" fill="#1E1D1D"/>
<path fill-rule="evenodd" clip-rule="evenodd" d="M21.9748 21.9771C22.2676 21.6842 22.7425 21.6842 23.0354 21.9771L23.564 22.5057C23.8569 22.7986 23.8569 23.2735 23.564 23.5664C23.2711 23.8593 22.7963 23.8593 22.5034 23.5664L21.9748 23.0378C21.6819 22.7449 21.6819 22.27 21.9748 21.9771Z" fill="#1E1D1D"/>
</g>
<defs>
<filter id="filter0_dii_103_9482" x="0" y="2.25" width="36" height="36.75" filterUnits="userSpaceOnUse" color-interpolation-filters="sRGB">
<feFlood flood-opacity="0" result="BackgroundImageFix"/>
<feColorMatrix in="SourceAlpha" type="matrix" values="0 0 0 0 0 0 0 0 0 0 0 0 0 0 0 0 0 0 127 0" result="hardAlpha"/>
<feMorphology radius="3" operator="erode" in="SourceAlpha" result="effect1_dropShadow_103_9482"/>
<feOffset dy="3"/>
<feGaussianBlur stdDeviation="3"/>
<feColorMatrix type="matrix" values="0 0 0 0 0 0 0 0 0 0 0 0 0 0 0 0 0 0 0.25 0"/>
<feBlend mode="multiply" in2="BackgroundImageFix" result="effect1_dropShadow_103_9482"/>
<feBlend mode="normal" in="SourceGraphic" in2="effect1_dropShadow_103_9482" result="shape"/>
<feColorMatrix in="SourceAlpha" type="matrix" values="0 0 0 0 0 0 0 0 0 0 0 0 0 0 0 0 0 0 127 0" result="hardAlpha"/>
<feOffset dy="1.5"/>
<feComposite in2="hardAlpha" operator="arithmetic" k2="-1" k3="1"/>
<feColorMatrix type="matrix" values="0 0 0 0 1 0 0 0 0 1 0 0 0 0 1 0 0 0 0.25 0"/>
<feBlend mode="normal" in2="shape" result="effect2_innerShadow_103_9482"/>
<feColorMatrix in="SourceAlpha" type="matrix" values="0 0 0 0 0 0 0 0 0 0 0 0 0 0 0 0 0 0 127 0" result="hardAlpha"/>
<feOffset dy="-0.75"/>
<feGaussianBlur stdDeviation="0.375"/>
<feComposite in2="hardAlpha" operator="arithmetic" k2="-1" k3="1"/>
<feColorMatrix type="matrix" values="0 0 0 0 0 0 0 0 0 0 0 0 0 0 0 0 0 0 0.04 0"/>
<feBlend mode="multiply" in2="effect2_innerShadow_103_9482" result="effect3_innerShadow_103_9482"/>
</filter>
</defs>
</svg>
